name rise30.3154peak39.0474fall46.5389.mot
datacolumns 19
datarows 27
range 23.33158300000000 23.37491100000000
endheader
time	ground_force1_vx	ground_force1_vy	ground_force1_vz	ground_force1_px	ground_force1_py	ground_force1_pz	ground_force2_vx	ground_force2_vy	ground_force2_vz	ground_force2_px	ground_force2_py	ground_force2_pz	ground_torque1_x	ground_torque1_y	ground_torque1_z	ground_torque2_x	ground_torque2_y	ground_torque2_z	
23.33158300000000	11.45961800000000	704.38810200000000	36.10479600000000	0.27454600000000	0.00000000000000	0.07957200000000	0.00000000000000	0.00000000000000	0.00000000000000	0.00000000000000	0.00000000000000	0.00000000000000	0.00000000000000	17.20485400000000	0.00000000000000	0.00000000000000	0.00000000000000	0.00000000000000	
23.33324800000000	11.18590300000000	704.05055700000003	36.04070800000000	0.27345200000000	0.00000000000000	0.07957200000000	0.00000000000000	0.00000000000000	0.00000000000000	0.00000000000000	0.00000000000000	0.00000000000000	0.00000000000000	17.14322400000000	0.00000000000000	0.00000000000000	0.00000000000000	0.00000000000000	
23.33491400000000	10.90748300000000	703.76396299999999	35.98529800000000	0.27238200000000	0.00000000000000	0.07957000000000	0.00000000000000	0.00000000000000	0.00000000000000	0.00000000000000	0.00000000000000	0.00000000000000	0.00000000000000	17.08854800000000	0.00000000000000	0.00000000000000	0.00000000000000	0.00000000000000	
23.33657800000000	10.62403100000000	703.52851199999998	35.93831400000000	0.27133500000000	0.00000000000000	0.07956700000000	0.00000000000000	0.00000000000000	0.00000000000000	0.00000000000000	0.00000000000000	0.00000000000000	0.00000000000000	17.04069400000000	0.00000000000000	0.00000000000000	0.00000000000000	0.00000000000000	
23.33825100000000	10.33522700000000	703.34433200000001	35.89949600000000	0.27031300000000	0.00000000000000	0.07956200000000	0.00000000000000	0.00000000000000	0.00000000000000	0.00000000000000	0.00000000000000	0.00000000000000	0.00000000000000	16.99952100000000	0.00000000000000	0.00000000000000	0.00000000000000	0.00000000000000	
23.33991400000000	10.04076300000000	703.21149100000002	35.86858200000000	0.26931600000000	0.00000000000000	0.07955600000000	0.00000000000000	0.00000000000000	0.00000000000000	0.00000000000000	0.00000000000000	0.00000000000000	0.00000000000000	16.96488300000000	0.00000000000000	0.00000000000000	0.00000000000000	0.00000000000000	
23.34157900000000	9.74034100000000	703.12999500000001	35.84530400000000	0.26834200000000	0.00000000000000	0.07954800000000	0.00000000000000	0.00000000000000	0.00000000000000	0.00000000000000	0.00000000000000	0.00000000000000	0.00000000000000	16.93662700000000	0.00000000000000	0.00000000000000	0.00000000000000	0.00000000000000	
23.34325100000000	9.43367100000000	703.09979199999998	35.82938900000000	0.26739300000000	0.00000000000000	0.07953900000000	0.00000000000000	0.00000000000000	0.00000000000000	0.00000000000000	0.00000000000000	0.00000000000000	0.00000000000000	16.91459600000000	0.00000000000000	0.00000000000000	0.00000000000000	0.00000000000000	
23.34491800000000	9.12047600000000	703.12077099999999	35.82056400000000	0.26646800000000	0.00000000000000	0.07952800000000	0.00000000000000	0.00000000000000	0.00000000000000	0.00000000000000	0.00000000000000	0.00000000000000	0.00000000000000	16.89862900000000	0.00000000000000	0.00000000000000	0.00000000000000	0.00000000000000	
23.34657900000000	8.80048900000000	703.19276300000001	35.81855100000000	0.26556600000000	0.00000000000000	0.07951600000000	0.00000000000000	0.00000000000000	0.00000000000000	0.00000000000000	0.00000000000000	0.00000000000000	0.00000000000000	16.88855900000000	0.00000000000000	0.00000000000000	0.00000000000000	0.00000000000000	
23.34824800000000	8.47345600000000	703.31554300000005	35.82307400000000	0.26468900000000	0.00000000000000	0.07950200000000	0.00000000000000	0.00000000000000	0.00000000000000	0.00000000000000	0.00000000000000	0.00000000000000	0.00000000000000	16.88421800000000	0.00000000000000	0.00000000000000	0.00000000000000	0.00000000000000	
23.34991700000000	8.13913200000000	703.48883000000001	35.83385300000000	0.26383400000000	0.00000000000000	0.07948600000000	0.00000000000000	0.00000000000000	0.00000000000000	0.00000000000000	0.00000000000000	0.00000000000000	0.00000000000000	16.88543400000000	0.00000000000000	0.00000000000000	0.00000000000000	0.00000000000000	
23.35158300000000	7.79728300000000	703.71228799999994	35.85061200000000	0.26300100000000	0.00000000000000	0.07946900000000	0.00000000000000	0.00000000000000	0.00000000000000	0.00000000000000	0.00000000000000	0.00000000000000	0.00000000000000	16.89203000000000	0.00000000000000	0.00000000000000	0.00000000000000	0.00000000000000	
23.35325200000000	7.44769100000000	703.98552900000004	35.87307300000000	0.26219100000000	0.00000000000000	0.07945000000000	0.00000000000000	0.00000000000000	0.00000000000000	0.00000000000000	0.00000000000000	0.00000000000000	0.00000000000000	16.90383200000000	0.00000000000000	0.00000000000000	0.00000000000000	0.00000000000000	
23.35491100000000	7.09014500000000	704.30811100000005	35.90096200000000	0.26140100000000	0.00000000000000	0.07943000000000	0.00000000000000	0.00000000000000	0.00000000000000	0.00000000000000	0.00000000000000	0.00000000000000	0.00000000000000	16.92065900000000	0.00000000000000	0.00000000000000	0.00000000000000	0.00000000000000	
23.35657800000000	6.72445000000000	704.67953899999998	35.93400700000000	0.26063100000000	0.00000000000000	0.07940800000000	0.00000000000000	0.00000000000000	0.00000000000000	0.00000000000000	0.00000000000000	0.00000000000000	0.00000000000000	16.94233300000000	0.00000000000000	0.00000000000000	0.00000000000000	0.00000000000000	
23.35824900000000	6.35042300000000	705.09926900000005	35.97193800000000	0.25988100000000	0.00000000000000	0.07938500000000	0.00000000000000	0.00000000000000	0.00000000000000	0.00000000000000	0.00000000000000	0.00000000000000	0.00000000000000	16.96867300000000	0.00000000000000	0.00000000000000	0.00000000000000	0.00000000000000	
23.35991400000000	5.96789100000000	705.56670699999995	36.01449100000000	0.25914900000000	0.00000000000000	0.07936000000000	0.00000000000000	0.00000000000000	0.00000000000000	0.00000000000000	0.00000000000000	0.00000000000000	0.00000000000000	16.99949800000000	0.00000000000000	0.00000000000000	0.00000000000000	0.00000000000000	
23.36157900000000	5.57669900000000	706.08120599999995	36.06140500000000	0.25843400000000	0.00000000000000	0.07933300000000	0.00000000000000	0.00000000000000	0.00000000000000	0.00000000000000	0.00000000000000	0.00000000000000	0.00000000000000	17.03462700000000	0.00000000000000	0.00000000000000	0.00000000000000	0.00000000000000	
23.36324600000000	5.17670200000000	706.64207599999997	36.11242500000000	0.25773500000000	0.00000000000000	0.07930600000000	0.00000000000000	0.00000000000000	0.00000000000000	0.00000000000000	0.00000000000000	0.00000000000000	0.00000000000000	17.07388100000000	0.00000000000000	0.00000000000000	0.00000000000000	0.00000000000000	
23.36491600000000	4.76777200000000	707.24857599999996	36.16730100000000	0.25705100000000	0.00000000000000	0.07927700000000	0.00000000000000	0.00000000000000	0.00000000000000	0.00000000000000	0.00000000000000	0.00000000000000	0.00000000000000	17.11707900000000	0.00000000000000	0.00000000000000	0.00000000000000	0.00000000000000	
23.36658500000000	4.34979300000000	707.89991999999995	36.22579000000000	0.25638100000000	0.00000000000000	0.07924700000000	0.00000000000000	0.00000000000000	0.00000000000000	0.00000000000000	0.00000000000000	0.00000000000000	0.00000000000000	17.16404200000000	0.00000000000000	0.00000000000000	0.00000000000000	0.00000000000000	
23.36824700000000	3.92266500000000	708.59527500000002	36.28765700000000	0.25572300000000	0.00000000000000	0.07921600000000	0.00000000000000	0.00000000000000	0.00000000000000	0.00000000000000	0.00000000000000	0.00000000000000	0.00000000000000	17.21459300000000	0.00000000000000	0.00000000000000	0.00000000000000	0.00000000000000	
23.36992000000000	3.48630700000000	709.33376399999997	36.35267200000000	0.25507600000000	0.00000000000000	0.07918300000000	0.00000000000000	0.00000000000000	0.00000000000000	0.00000000000000	0.00000000000000	0.00000000000000	0.00000000000000	17.26855500000000	0.00000000000000	0.00000000000000	0.00000000000000	0.00000000000000	
23.37158100000000	3.04064900000000	710.11446699999999	36.42061400000000	0.25443900000000	0.00000000000000	0.07915000000000	0.00000000000000	0.00000000000000	0.00000000000000	0.00000000000000	0.00000000000000	0.00000000000000	0.00000000000000	17.32575400000000	0.00000000000000	0.00000000000000	0.00000000000000	0.00000000000000	
23.37324400000000	2.58564100000000	710.93642000000000	36.49127200000000	0.25381000000000	0.00000000000000	0.07911600000000	0.00000000000000	0.00000000000000	0.00000000000000	0.00000000000000	0.00000000000000	0.00000000000000	0.00000000000000	17.38601700000000	0.00000000000000	0.00000000000000	0.00000000000000	0.00000000000000	
23.37491100000000	2.12125100000000	711.79861700000004	36.56444000000000	0.25318800000000	0.00000000000000	0.07908100000000	0.00000000000000	0.00000000000000	0.00000000000000	0.00000000000000	0.00000000000000	0.00000000000000	0.00000000000000	17.44917400000000	0.00000000000000	0.00000000000000	0.00000000000000	0.00000000000000	
